# xmcd CD database file
#
# Track frame offsets:
#	150
#	12819
#	25271
#	40267
#	51494
#	66431
#	82763
#	97005
#	108558
#	121455
#	131647
#	142066
#	156896
#	171516
#	185253
#	198743
#	221162
#	234370
#	248995
#	262561
#
# Disc length: 3674 seconds
#
# Revision: 0
# Processed by: cddbd v1.5.2PL0 Copyright (c) Steve Scherf et al.
# Submitted via: CDex 1.70beta2
#
DISCID=240e5814
DTITLE=Bratislava Hot Serenaders - The Broken Record
DYEAR=2006
DGENRE=Jazz
TTITLE0=Take It Easy
TTITLE1=If I Had You
TTITLE2=Delishious
TTITLE3=Sweet And Low Down
TTITLE4=Japanese Mammy
TTITLE5=You A'int The One
TTITLE6=East St. Louis Toodle-Oo
TTITLE7=Tatranský Expres
TTITLE8=Sweet Jazz O'Mine
TTITLE9=Nights When I'M Lonely
TTITLE10=That Certain Feeling
TTITLE11=My Baby Knows How
TTITLE12=Svítá
TTITLE13=Jungle Nights In Harlem
TTITLE14=Neudačnoe Svidanie
TTITLE15=She's Funny That Way
TTITLE16=Washington Wobble
TTITLE17=So Tired
TTITLE18=Old Man Blues
TTITLE19=The Broken Record
EXTD=YEAR: 2006
EXTT0=
EXTT1=
EXTT2=
EXTT3=
EXTT4=
EXTT5=
EXTT6=
EXTT7=
EXTT8=
EXTT9=
EXTT10=
EXTT11=
EXTT12=
EXTT13=
EXTT14=
EXTT15=
EXTT16=
EXTT17=
EXTT18=
EXTT19=
PLAYORDER=
